<?xml version="1.0" encoding="utf-8"?>
<!-- Generator: Adobe Illustrator 24.1.1, SVG Export Plug-In . SVG Version: 6.00 Build 0)  -->
<svg version="1.1" id="Layer_1" xmlns="http://www.w3.org/2000/svg" xmlns:xlink="http://www.w3.org/1999/xlink" x="0px" y="0px"
	 viewBox="0 0 512 512" style="enable-background:new 0 0 512 512;" xml:space="preserve">
<g>
	<path d="M459.2,97.5v26.4v0v264.2H179.5L55.2,263.7l-18.7,18.7l19.7-17.6c-2.3-2.6-3.3-5.6-3.4-8.8c0-3.2,1.1-6.3,3.4-8.8
		l-19.7-17.6l18.7,18.7l124.3-124.3h279.6V97.5V71.1H168.6c-7,0-13.8,2.8-18.7,7.7L17.8,210.9l-1,1.1C5.6,224.5,0,240.3,0,256
		c0,15.7,5.6,31.5,16.8,44l1,1.1l132.1,132.1c4.9,4.9,11.7,7.7,18.7,7.7h290.6c29.2,0,52.8-23.6,52.8-52.8V123.9
		c0-29.2-23.6-52.8-52.8-52.8V97.5z"/>
	<path d="M229.2,221.8l105.7,105.7c10.3,10.3,27,10.3,37.4,0c10.3-10.3,10.3-27,0-37.4L266.5,184.5c-10.3-10.3-27-10.3-37.4,0
		C218.8,194.8,218.8,211.5,229.2,221.8z M334.8,184.5L229.2,290.2c-10.3,10.3-10.3,27,0,37.4c10.3,10.3,27,10.3,37.4,0l105.7-105.7
		c10.3-10.3,10.3-27,0-37.4C361.9,174.2,345.1,174.2,334.8,184.5z"/>
</g>
</svg>
